<?xml version="1.0" encoding="UTF-8"?>
<svg width="200" height="200" viewBox="0 0 200 200" xmlns="http://www.w3.org/2000/svg">
  <rect width="200" height="200" fill="#ffffff"/>
  <path d="M10,10h50v10h-50zM10,10h10v50h-10zM60,10h10v10h-10zM10,60h10v10h-10zM30,30h10v10h-10zM30,40h10v10h-10zM40,30h10v10h-10zM10,80h10v10h-10zM20,80h10v10h-10zM10,90h10v10h-10zM90,10h10v10h-10zM100,10h10v10h-10zM110,10h10v10h-10zM90,20h10v10h-10zM90,30h10v10h-10zM90,40h10v10h-10zM80,10h10v10h-10zM100,20h10v10h-10zM110,20h10v10h-10zM80,20h10v10h-10zM100,30h10v10h-10zM110,30h10v10h-10zM80,30h10v10h-10zM120,10h10v10h-10zM120,20h10v10h-10zM120,30h10v10h-10zM120,40h10v10h-10zM130,10h10v10h-10zM130,20h10v10h-10zM130,30h10v10h-10zM130,40h10v10h-10zM140,10h10v10h-10zM140,20h10v10h-10zM140,30h10v10h-10zM140,40h10v10h-10zM80,40h10v10h-10zM80,50h10v10h-10zM90,50h10v10h-10zM100,50h10v10h-10zM110,50h10v10h-10zM120,50h10v10h-10zM130,50h10v10h-10zM140,50h10v10h-10zM150,10h10v10h-10zM150,20h10v10h-10zM150,30h10v10h-10zM150,40h10v10h-10zM150,50h10v10h-10zM10,160h10v10h-10zM10,170h10v10h-10zM20,160h10v10h-10zM20,170h10v10h-10zM160,10h10v10h-10zM170,10h10v10h-10zM160,20h10v10h-10zM170,20h10v10h-10zM160,30h10v10h-10zM170,30h10v10h-10zM160,40h10v10h-10zM170,40h10v10h-10zM160,50h10v10h-10zM170,50h10v10h-10zM155,155h10v10h-10zM155,165h10v10h-10zM165,155h10v10h-10zM165,165h10v10h-10z" fill="#000000"/>
</svg>
